<?xml version="1.0" encoding="UTF-8" standalone="no"?>
<svg
   xmlns:dc="http://purl.org/dc/elements/1.1/"
   xmlns:cc="http://creativecommons.org/ns#"
   xmlns:rdf="http://www.w3.org/1999/02/22-rdf-syntax-ns#"
   xmlns:svg="http://www.w3.org/2000/svg"
   xmlns="http://www.w3.org/2000/svg"
   xmlns:sodipodi="http://sodipodi.sourceforge.net/DTD/sodipodi-0.dtd"
   xmlns:inkscape="http://www.inkscape.org/namespaces/inkscape"
   version="1.1"
   id="svg10"
   width="256"
   height="256"
   viewBox="0 0 256 256"
   sodipodi:docname="Logoicon.svg"
   inkscape:version="1.0.1 (3bc2e813f5, 2020-09-07)">
  <metadata
     id="metadata16">
    <rdf:RDF>
      <cc:Work
         rdf:about="">
        <dc:format>image/svg+xml</dc:format>
        <dc:type
           rdf:resource="http://purl.org/dc/dcmitype/StillImage" />
        <dc:title></dc:title>
      </cc:Work>
    </rdf:RDF>
  </metadata>
  <defs
     id="defs14" />
  <sodipodi:namedview
     pagecolor="#ffffff"
     bordercolor="#666666"
     borderopacity="1"
     objecttolerance="10"
     gridtolerance="10"
     guidetolerance="10"
     inkscape:pageopacity="0"
     inkscape:pageshadow="2"
     inkscape:window-width="1920"
     inkscape:window-height="1001"
     id="namedview12"
     showgrid="false"
     inkscape:zoom="1.6210938"
     inkscape:cx="346.22641"
     inkscape:cy="109.81822"
     inkscape:window-x="-9"
     inkscape:window-y="-9"
     inkscape:window-maximized="1"
     inkscape:current-layer="layer2" />
  <g
     inkscape:groupmode="layer"
     id="layer2"
     inkscape:label="Image 1"
     style="display:inline">
    <path
       style="fill:none;stroke:#000000;stroke-width:1px;stroke-linecap:butt;stroke-linejoin:miter;stroke-opacity:1"
       d="m 128.30843,251.98072 c 0,0 0,0 -27.4506,-41.94699 15.80055,-48.48382 0.61687,-110.419272 0.61687,-110.419272 0,0 0,0 -4.934941,4.318072 -5.965166,0.91713 -6.248187,-1.57142 -14.496386,-19.431325 16.614697,-1.28464 30.493947,-4.822037 33.619277,-6.785542 3.12533,-1.963505 1.45468,-17.447002 0.5823,-20.50034 -0.87239,-3.053338 -48.417223,-9.596206 -48.417223,-9.596206 l -4.598811,3.571244 c 0,0 0,0 22.207229,83.585539 -28.845942,39.61195 -47.498796,0.9253 -47.498796,0.9253 0,0 0.66557,-3.2429 20.665061,-85.43614 -3.587798,-2.100704 -2.660892,-4.717851 -2.660892,-4.717851 0,0 0.98143,-4.034768 3.816673,-4.961674 2.835242,-0.926907 5.876385,1.561476 6.215724,2.998814 0.339338,1.437338 1.581193,1.199526 1.581193,1.199526 0,0 44.109832,-3.925721 49.998412,-6.760964 5.88858,-2.835242 9.52118,-30.9385737 9.52118,-30.9385737"
       id="path48" />
    <path
       style="display:inline;fill:none;stroke:#000000;stroke-width:1px;stroke-linecap:butt;stroke-linejoin:miter;stroke-opacity:1"
       d="m 128.30843,251.98072 c 0,0 0,0 27.4506,-41.94699 -15.80055,-48.48382 -0.61687,-110.419272 -0.61687,-110.419272 0,0 0,0 4.93494,4.318072 5.96517,0.91713 6.24819,-1.57142 14.49639,-19.431325 -16.6147,-1.28464 -30.49395,-4.822037 -33.61928,-6.785542 -3.12533,-1.963505 -1.45468,-17.447002 -0.5823,-20.50034 0.87239,-3.053338 48.41722,-9.596206 48.41722,-9.596206 l 4.59881,3.571244 c 0,0 0,0 -22.20723,83.585539 28.84595,39.61195 47.4988,0.9253 47.4988,0.9253 0,0 -0.66557,-3.2429 -20.66506,-85.43614 3.5878,-2.100704 2.66089,-4.717851 2.66089,-4.717851 0,0 -0.98143,-4.034768 -3.81667,-4.961674 -2.83524,-0.926907 -5.87639,1.561476 -6.21573,2.998814 -0.33933,1.437338 -1.58119,1.199526 -1.58119,1.199526 0,0 -44.10983,-3.925721 -49.99841,-6.760964 -5.88858,-2.835242 -9.52118,-30.9385737 -9.52118,-30.9385737"
       id="path50" />
    <path
       style="display:inline;fill:none;stroke:#000000;stroke-width:1px;stroke-linecap:butt;stroke-linejoin:miter;stroke-opacity:1"
       d="m 127.0747,7.0843373 0.0614,-0.589869 1.24041,-2.2900037 1.06322,2.1945868 0.10243,0.6852859"
       id="path76" />
    <path
       style="fill:#333333;fill-opacity:1;stroke-width:0.308434"
       d="m 128.10491,5.0137004 c -1.68306,0.8953479 -1.29213,3.3356309 -1.82835,4.9170032 -1.52426,8.4859994 -2.56596,17.3374474 -6.60599,25.0805874 -0.91131,1.850386 -2.72246,3.256215 -4.86929,3.453594 -11.94134,2.616647 -24.17164,3.517569 -36.272278,4.892792 -3.953856,0.362906 -7.909083,0.817291 -11.885542,0.795784 -1.077486,-3.164219 -5.634801,-5.502825 -8.393373,-2.950604 -2.052296,1.817838 -3.913845,5.571979 -1.531928,7.848192 1.751101,0.950155 1.475175,2.467109 0.840829,4.116662 -6.65175,27.434749 -13.364481,54.854899 -19.891432,82.319479 1.09693,2.96268 3.243766,5.56476 5.210637,8.06338 4.566041,5.41036 11.326437,10.07184 18.711653,9.32397 8.92936,-1.0714 15.731779,-7.733 21.251985,-14.29561 1.107918,-1.64265 3.677137,-3.20613 2.456865,-5.48399 -7.196588,-27.21818 -14.411091,-54.431711 -21.673308,-81.632445 1.384763,-1.271188 2.927251,-2.773362 4.565972,-3.473645 14.903362,2.287298 29.905541,4.220832 44.55384,7.944195 1.3305,0.496143 3.526,0.605372 3.42476,2.538486 0.85474,5.349358 1.1474,10.92505 0.51687,16.365059 -0.29592,3.253939 -4.03229,3.745277 -6.51956,4.569135 -8.92863,2.600454 -18.13354,3.622739 -27.290676,4.84653 -1.539948,1.207851 0.459829,3.030929 0.752961,4.431227 2.376395,4.762964 4.075776,10.003623 7.441615,14.189858 2.036406,2.15932 5.758562,1.78558 7.623494,-0.42832 0.78589,-0.31477 2.215596,-2.618743 2.652846,-1.7376 4.34771,20.02136 6.49048,40.51832 6.2935,60.9797 -0.19475,15.78621 -2.07012,31.65527 -6.58249,46.82658 -0.89308,2.74038 1.94622,4.69103 2.97257,6.92997 7.66176,11.56427 14.98459,23.36591 23.00394,34.6863 0.55481,1.14609 2.31178,1.54225 2.77656,0.0737 8.6818,-13.20676 17.32874,-26.43693 25.99091,-39.65686 0.12453,-2.48616 -1.23718,-4.90272 -1.68095,-7.37207 -6.37689,-25.10905 -6.14952,-51.2837 -3.16062,-76.83757 1.05875,-8.75622 2.46765,-17.46599 4.3753,-26.09156 2.27162,1.7101 4.38383,4.80049 7.64458,3.96205 3.39645,-0.70701 4.60049,-4.531505 6.12409,-7.193378 1.81228,-3.855431 3.77807,-7.666419 5.25482,-11.662046 -0.25656,-1.87772 -2.78877,-1.16678 -4.11771,-1.596993 -9.21167,-1.112434 -18.4985,-2.508044 -27.35758,-5.491564 -2.5423,-0.552364 -3.22278,-3.272192 -3.17169,-5.517469 0.008,-5.103304 -0.17707,-10.332934 1.04096,-15.335541 0.71361,-1.260081 2.65847,-1.114633 3.86183,-1.681023 14.52045,-3.553514 29.33171,-5.540796 44.096,-7.785243 1.41785,1.17462 2.99232,2.182804 4.26386,3.524096 -7.03014,26.692623 -14.34878,53.310831 -21.10114,80.074941 -0.45797,1.85766 -1.15391,4.11683 0.62885,5.53711 5.65061,6.88196 12.41328,14.12824 21.6247,15.65361 6.78886,1.17002 13.4768,-2.59614 18.00542,-7.41807 2.5376,-2.88068 5.18608,-5.90964 6.61506,-9.50361 -0.13359,-3.40266 -1.4999,-6.68808 -2.10852,-10.04039 C 210.61112,100.65376 204.5,75.5553 198.40069,50.45346 c 1.68503,-1.248499 3.31857,-3.24764 2.36385,-5.463857 -0.76602,-2.8283 -3.67333,-5.932908 -6.8253,-4.583733 -1.84732,0.537076 -3.27328,1.964899 -3.9506,3.748192 -10.97513,-0.262292 -21.87677,-1.895523 -32.78381,-3.170785 -5.86425,-0.91743 -11.94337,-1.333371 -17.51257,-3.177407 -3.20562,-1.583439 -3.99199,-5.536755 -5.18175,-8.596239 -2.52499,-7.638325 -3.37745,-15.661085 -5.08633,-23.4706294 -0.1859,-0.5230138 -0.77223,-0.8618839 -1.31927,-0.7253012 z"
       id="path92" />
  </g>
</svg>
